<svg width="160" height="160" viewBox="0 0 160 160" fill="none" xmlns="http://www.w3.org/2000/svg">
<path d="M106.75 0H53.2491C44.0959 0 36.649 7.44625 36.649 16.6003V143.4C36.649 152.553 44.0959 160 53.2491 160H106.75C115.904 160 123.351 152.553 123.351 143.401V16.6003C123.351 7.44625 115.904 0 106.75 0ZM79.9997 150.194C76.2906 150.194 73.2728 147.176 73.2728 143.467C73.2728 139.758 76.2903 136.741 79.9997 136.741C83.7087 136.741 86.7266 139.758 86.7266 143.467C86.7266 147.176 83.7087 150.194 79.9997 150.194ZM113.523 21.0222V127.321H46.4762V21.0222H113.523Z" fill="#4B4B4B"/>
</svg>
