<svg width="160" height="160" viewBox="0 0 160 160" fill="none" xmlns="http://www.w3.org/2000/svg">
<path d="M115.602 58.8119H44.3959V126.2H115.602V58.8119Z" fill="#4B4B4B"/>
<path d="M70.995 130.458H49.7612V160H70.995V130.458Z" fill="#4B4B4B"/>
<path d="M110.236 130.458H89.0054V160H110.236V130.458Z" fill="#4B4B4B"/>
<path d="M39.9575 58.8119H34.4641C25.7719 58.8119 18.726 65.8578 18.726 74.5497V111.583H39.9572V58.8119H39.9575Z" fill="#4B4B4B"/>
<path d="M35.8396 118.006C33.9887 116.754 31.7387 116.019 29.3431 116.022C27.7462 116.022 26.2109 116.347 24.8212 116.936C22.7337 117.818 20.964 119.287 19.7121 121.14C18.4603 122.991 17.7259 125.241 17.7284 127.637C17.7259 130.037 18.4628 132.289 19.7172 134.14C20.974 135.994 22.7459 137.465 24.8384 138.345L26.9503 133.327C25.8462 132.861 24.8953 132.075 24.2271 131.089C23.5593 130.101 23.1746 128.926 23.1721 127.637C23.1721 126.777 23.3446 125.973 23.6553 125.237C24.1212 124.133 24.9071 123.183 25.8953 122.518C26.8837 121.853 28.0543 121.468 29.3431 121.466C30.2034 121.466 31.0068 121.639 31.7437 121.952C32.8478 122.415 33.7968 123.204 34.4621 124.189C35.1271 125.178 35.5118 126.348 35.5143 127.637C35.5118 128.926 35.125 130.102 34.4596 131.09C33.7915 132.076 32.8403 132.862 31.7365 133.328L33.8484 138.345C35.9406 137.465 37.7128 135.994 38.9671 134.141C40.224 132.29 40.9609 130.038 40.9584 127.637C40.9584 126.04 40.6331 124.507 40.044 123.115C39.1615 121.027 37.6925 119.258 35.8396 118.006Z" fill="#4B4B4B"/>
<path d="M141.271 74.5497C141.271 65.8578 134.225 58.8119 125.533 58.8119H120.04V111.583H141.271V74.5497Z" fill="#4B4B4B"/>
<path d="M141.358 123.114C140.473 121.027 139.004 119.258 137.151 118.006C135.303 116.754 133.053 116.019 130.657 116.022C129.06 116.022 127.525 116.347 126.135 116.936C124.045 117.818 122.278 119.287 121.026 121.14C119.774 122.991 119.04 125.241 119.04 127.637C119.04 130.037 119.777 132.289 121.031 134.14C122.285 135.994 124.06 137.465 126.152 138.345L128.264 133.327C127.157 132.861 126.208 132.075 125.541 131.089C124.873 130.101 124.486 128.926 124.486 127.637C124.486 126.777 124.659 125.973 124.969 125.237C125.435 124.133 126.221 123.183 127.207 122.518C128.195 121.853 129.368 121.468 130.657 121.466C131.515 121.466 132.321 121.639 133.058 121.952C134.162 122.415 135.108 123.204 135.776 124.189C136.442 125.178 136.826 126.348 136.828 127.637C136.826 128.926 136.439 130.102 135.774 131.09C135.106 132.076 134.155 132.862 133.048 133.328L135.162 138.345C137.255 137.465 139.027 135.994 140.281 134.141C141.536 132.29 142.275 130.038 142.272 127.637C142.272 126.04 141.947 124.507 141.358 123.114Z" fill="#4B4B4B"/>
<path d="M79.9999 0C60.3362 0 44.3959 16.5662 44.3959 36.9966V54.8172H115.602V36.9966C115.602 16.5662 99.6615 0 79.9999 0ZM94.2346 45.7331H65.1959C59.3821 45.7331 54.6677 41.0209 54.6677 35.2075C54.6677 29.3941 59.3824 24.6819 65.1959 24.6819H94.2346C100.048 24.6819 104.76 29.3938 104.76 35.2075C104.76 41.0213 100.048 45.7331 94.2346 45.7331Z" fill="#4B4B4B"/>
<path d="M67.8206 29.8866C64.8831 29.8866 62.4996 32.2697 62.4996 35.2072C62.4996 38.145 64.8831 40.5282 67.8206 40.5282C70.7609 40.5282 73.1412 38.145 73.1412 35.2072C73.1415 32.2697 70.7609 29.8866 67.8206 29.8866Z" fill="#4B4B4B"/>
<path d="M91.7778 32.6666C90.3753 32.6666 89.2394 33.8051 89.2394 35.2073C89.2394 36.6094 90.3756 37.7479 91.7778 37.7479C93.1825 37.7479 94.3184 36.6094 94.3184 35.2073C94.3184 33.8051 93.1822 32.6666 91.7778 32.6666Z" fill="#4B4B4B"/>
</svg>
