<svg width="83" height="149" viewBox="0 0 83 149" fill="none" xmlns="http://www.w3.org/2000/svg">
<path d="M42.001 121.329L32.3393 111.669L27.5775 116.431L42.001 130.855L56.4225 116.431L51.6607 111.669L42.001 121.329Z" fill="#4B4B4B"/>
<path d="M42.0009 89C25.4304 89.0008 12.0018 102.43 12 118.999C12.0018 135.57 25.4304 148.998 42.0009 149C58.5696 148.998 71.9981 135.57 72 118.999C71.9981 102.43 58.5696 89.0008 42.0009 89ZM59.8811 136.881C55.2979 141.462 48.9908 144.287 42.0009 144.288C35.0101 144.287 28.7021 141.462 24.1188 136.881C19.5384 132.297 16.713 125.99 16.7121 118.999C16.713 112.009 19.5384 105.702 24.1188 101.118C28.7021 96.5384 35.0101 93.7129 42.0009 93.7121C48.9908 93.7129 55.2979 96.5384 59.8811 101.118C64.4616 105.702 67.287 112.009 67.2879 118.999C67.287 125.99 64.4606 132.297 59.8811 136.881Z" fill="#4B4B4B"/>
<circle cx="41.5" cy="72.5" r="4.5" fill="#4B4B4B"/>
<circle cx="41.5" cy="55.5" r="4.5" fill="#4B4B4B"/>
<circle cx="41.5" cy="21.5" r="4.5" fill="#4B4B4B"/>
<circle cx="41.5" cy="4.5" r="4.5" fill="#4B4B4B"/>
<path d="M0.641152 41.127C0.719152 41.66 0.771152 41.907 0.888152 42.206C1.13515 42.843 1.51215 43.337 2.03215 43.688C2.65615 44.104 3.69615 44.364 4.76215 44.364C6.15315 44.364 7.18015 44.039 7.86915 43.376C8.40215 42.843 8.68815 42.089 8.68815 41.166C8.68815 40.191 8.35015 39.476 7.60915 38.93C7.14115 38.605 6.51715 38.358 5.49015 38.137C4.04715 37.812 3.94315 37.786 3.65715 37.669C3.05915 37.409 2.77315 37.032 2.77315 36.486C2.77315 35.641 3.54015 35.069 4.67115 35.069C5.38615 35.069 5.95815 35.29 6.29615 35.693C6.51715 35.953 6.60815 36.174 6.68615 36.616L8.54515 36.395C8.38915 35.706 8.23315 35.316 7.90815 34.887C7.27115 34.029 6.15315 33.574 4.67115 33.574C2.43515 33.574 0.979152 34.744 0.979152 36.551C0.979152 37.422 1.31715 38.137 1.98015 38.657C2.44815 39.021 2.96815 39.229 3.94315 39.45C5.73715 39.866 5.81515 39.879 6.20515 40.087C6.60815 40.308 6.85515 40.75 6.85515 41.283C6.85515 42.258 6.07515 42.843 4.77515 42.843C3.93015 42.843 3.25415 42.57 2.87715 42.076C2.64315 41.777 2.56515 41.517 2.51315 40.932L0.641152 41.127ZM16.9281 38.813C16.7461 38.332 16.6421 38.124 16.4731 37.864C15.8491 36.954 14.8351 36.46 13.5611 36.46C12.4951 36.46 11.5851 36.798 10.9481 37.448C10.2331 38.176 9.84312 39.229 9.84312 40.451C9.84312 42.856 11.3251 44.403 13.6131 44.403C14.8481 44.403 15.8491 43.948 16.4731 43.09C16.7071 42.778 16.8371 42.505 17.0191 41.985L15.4071 41.66C15.3291 41.985 15.2641 42.128 15.1471 42.31C14.8221 42.778 14.3021 43.038 13.6521 43.038C12.3391 43.038 11.5331 42.037 11.5331 40.412C11.5331 38.8 12.3261 37.799 13.6001 37.799C14.1721 37.799 14.6271 38.007 14.9391 38.397C15.1081 38.605 15.1991 38.787 15.3421 39.19L16.9281 38.813ZM23.7271 36.694C23.1421 36.59 22.8301 36.551 22.5181 36.551C21.3481 36.551 20.5421 36.993 20.0741 37.916V36.694H18.3061C18.3841 37.227 18.3971 37.591 18.3971 38.384V42.466C18.3971 43.142 18.3711 43.519 18.3061 44.156H20.1651C20.1001 43.545 20.0741 43.168 20.0741 42.466V40.061C20.1521 39.437 20.2821 39.138 20.6071 38.761C20.9711 38.332 21.4651 38.124 22.1151 38.124C22.4531 38.124 22.7261 38.176 23.2721 38.332L23.7271 36.694ZM28.2536 44.403C30.5676 44.403 32.0886 42.817 32.0886 40.412C32.0886 38.007 30.5936 36.473 28.2406 36.473C25.8746 36.473 24.3666 38.02 24.3666 40.438C24.3666 42.869 25.8746 44.403 28.2536 44.403ZM28.2406 37.825C29.6186 37.825 30.4116 38.787 30.4116 40.464C30.4116 42.05 29.5796 43.025 28.2276 43.025C26.8756 43.025 26.0436 42.037 26.0436 40.438C26.0436 38.813 26.8756 37.825 28.2406 37.825ZM33.3875 33.808C33.4525 34.302 33.4785 34.718 33.4785 35.498V42.466C33.4785 43.22 33.4525 43.597 33.3875 44.156H35.2725C35.2075 43.584 35.1815 43.155 35.1815 42.466V35.511C35.1815 34.731 35.2075 34.315 35.2725 33.808H33.3875ZM36.9168 33.808C36.9818 34.302 37.0078 34.718 37.0078 35.498V42.466C37.0078 43.22 36.9818 43.597 36.9168 44.156H38.8018C38.7368 43.584 38.7108 43.155 38.7108 42.466V35.511C38.7108 34.731 38.7368 34.315 38.8018 33.808H36.9168ZM44.9962 42.479C44.9962 43.259 44.9702 43.662 44.8922 44.195C45.4252 44.169 45.7502 44.156 46.5432 44.156H48.9092C50.4432 44.156 51.4832 43.805 52.3152 43.025C53.3292 42.063 53.8492 40.659 53.8492 38.891C53.8492 37.201 53.3552 35.849 52.4062 34.952C51.5742 34.146 50.5212 33.808 48.8962 33.808H46.5432C45.7242 33.808 45.4122 33.795 44.8922 33.769C44.9702 34.341 44.9962 34.731 44.9962 35.459V42.479ZM46.7252 42.622V35.342H48.8052C49.9362 35.342 50.6122 35.563 51.1452 36.122C51.7432 36.746 52.0422 37.669 52.0422 38.904C52.0422 40.126 51.7172 41.127 51.0932 41.79C50.5472 42.375 49.8582 42.622 48.7922 42.622H46.7252ZM58.8239 44.403C61.1379 44.403 62.6589 42.817 62.6589 40.412C62.6589 38.007 61.1639 36.473 58.8109 36.473C56.4449 36.473 54.9369 38.02 54.9369 40.438C54.9369 42.869 56.4449 44.403 58.8239 44.403ZM58.8109 37.825C60.1889 37.825 60.9819 38.787 60.9819 40.464C60.9819 42.05 60.1499 43.025 58.7979 43.025C57.4459 43.025 56.6139 42.037 56.6139 40.438C56.6139 38.813 57.4459 37.825 58.8109 37.825ZM71.7709 44.156C71.8359 43.792 71.9009 43.545 72.0959 42.921L73.5389 38.306C73.8769 37.227 73.9029 37.123 74.0719 36.694H72.1609C72.1349 37.11 72.0309 37.682 71.8749 38.241L71.1469 40.841C71.1209 40.932 71.0299 41.348 70.9909 41.53C70.9519 41.712 70.9519 41.712 70.9259 41.816C70.8999 41.699 70.8869 41.686 70.8479 41.517C70.7699 41.244 70.7049 40.997 70.6659 40.88L69.7039 37.929C69.5869 37.552 69.4179 36.941 69.3789 36.694H67.9879C67.9489 36.954 67.7929 37.552 67.6629 37.929L66.7269 40.763C66.6749 40.919 66.4539 41.686 66.4279 41.816C66.3239 41.309 66.2459 40.945 66.1939 40.776L65.4789 38.241C65.3359 37.734 65.2189 37.071 65.1929 36.694H63.2689C63.4509 37.175 63.6329 37.708 63.8149 38.306L65.2449 42.921C65.4529 43.584 65.5049 43.779 65.5829 44.156H67.0909C67.1429 43.883 67.2859 43.363 67.4289 42.921L68.4299 39.879C68.4689 39.749 68.6249 39.216 68.6899 38.982C68.8329 39.515 68.9109 39.801 68.9369 39.853L69.9379 42.921C70.0939 43.428 70.2109 43.844 70.2629 44.156H71.7709ZM76.8748 44.156C76.7968 43.597 76.7708 43.103 76.7708 42.466V39.84C77.3428 38.553 78.1098 37.903 79.0458 37.903C79.5398 37.903 79.9298 38.098 80.1378 38.436C80.2938 38.683 80.3588 39.034 80.3588 39.58V42.466C80.3588 43.129 80.3328 43.571 80.2678 44.156H82.1528C82.0748 43.675 82.0488 43.181 82.0488 42.466V39.346C82.0488 38.475 81.9188 37.955 81.6068 37.526C81.1388 36.889 80.3978 36.564 79.3968 36.564C78.2268 36.564 77.5378 36.928 76.7448 37.942C76.7708 37.617 76.7708 37.578 76.7708 37.383V36.694H75.0028C75.0808 37.227 75.1068 37.669 75.1068 38.384V42.466C75.1068 43.194 75.0808 43.597 75.0028 44.156H76.8748Z" fill="#4B4B4B"/>
</svg>
